PathFileType	4	(X/Y/Z)	C:\Users\Basilio\Documents\Thesis Gigler\squatting_fais\c3dfiles\040\SJ_pre4\markers_experimental.trc
DataRate	CameraRate	NumFrames	NumMarkers	Units	OrigDataRate	OrigDataStartFrame	OrigNumFrames
200.000000	200.000000	4	63	mm	200.000000	1040	1189
Frame#	Time	FHD			LBHD			RBHD			C7			T10			CLAV			LSHO			LUUPA			LMUPA			LDUPA			LLEP			LMEP			LRAD			LUL			LRFIN			RSHO			RUPA1			RMUPA			RDUPA			RLEP			RMEP			RRAD			RUL			RUFIN			LASI			RASI			USACR			LSACR			RSACR			LTHI1			LTHI2			LTHI3			LTHI4			LLFC			LMFC			LTIB1			LTIB2			LTIB3			LTIB4			LLMAL			LMMAL			LHEE			LMT1			LMT2			LMT5			RTHI			RTHI2			RTHI3			RTHI4			RLFC			RMFC			RTIB1			RTIB2			RTIB3			RTIB4			RLMAL			RMMAL			RHEE			RMT1			RMT2			RMT5			*61			*62			
		X1	Y1	Z1	X2	Y2	Z2	X3	Y3	Z3	X4	Y4	Z4	X5	Y5	Z5	X6	Y6	Z6	X7	Y7	Z7	X8	Y8	Z8	X9	Y9	Z9	X10	Y10	Z10	X11	Y11	Z11	X12	Y12	Z12	X13	Y13	Z13	X14	Y14	Z14	X15	Y15	Z15	X16	Y16	Z16	X17	Y17	Z17	X18	Y18	Z18	X19	Y19	Z19	X20	Y20	Z20	X21	Y21	Z21	X22	Y22	Z22	X23	Y23	Z23	X24	Y24	Z24	X25	Y25	Z25	X26	Y26	Z26	X27	Y27	Z27	X28	Y28	Z28	X29	Y29	Z29	X30	Y30	Z30	X31	Y31	Z31	X32	Y32	Z32	X33	Y33	Z33	X34	Y34	Z34	X35	Y35	Z35	X36	Y36	Z36	X37	Y37	Z37	X38	Y38	Z38	X39	Y39	Z39	X40	Y40	Z40	X41	Y41	Z41	X42	Y42	Z42	X43	Y43	Z43	X44	Y44	Z44	X45	Y45	Z45	X46	Y46	Z46	X47	Y47	Z47	X48	Y48	Z48	X49	Y49	Z49	X50	Y50	Z50	X51	Y51	Z51	X52	Y52	Z52	X53	Y53	Z53	X54	Y54	Z54	X55	Y55	Z55	X56	Y56	Z56	X57	Y57	Z57	X58	Y58	Z58	X59	Y59	Z59	X60	Y60	Z60	X61	Y61	Z61	X62	Y62	Z62	X63	Y63	Z63	

1041	5.2	-262.4600830078126	1768.307006835938	-928.3003540039065	-382.5997009277344	1699.20703125	-954.858337402344	-408.9554748535157	1648.451171875	-819.6630859375002	-418.1133117675782	1541.851318359375	-883.899841308594	-434.1607666015626	1216.423828125	-876.6345825195315	-286.6513061523438	1475.27294921875	-881.441589355469	-320.2309875488282	1526.126342773438	-1055.79345703125	-379.5360107421876	1397.106689453125	-1214.380493164063	-363.2735595703126	1350.3837890625	-1208.606323242188	-399.8209838867189	1345.341674804688	-1256.703857421875	-428.3778076171876	1297.04833984375	-1296.788696289063	-494.5193786621095	1295.334594726563	-1257.968383789063	-421.4730834960939	1074.18359375	-1102.796997070313	-373.4017333984376	1045.299072265625	-1152.046630859375	-371.7488403320313	1083.135620117188	-1058.114135742188	-312.4692687988282	1506.801391601563	-707.3010864257814	-389.3634643554689	1420.886962890625	-542.0669555664064	-364.9303588867188	1378.548583984375	-532.0074462890626	-404.891815185547	1379.8193359375	-487.3244628906251	-409.9703979492189	1322.88525390625	-441.1058959960939	-482.9713134765626	1299.940307617188	-480.9632873535157	-358.2178039550782	1119.176147460938	-636.4022827148439	-310.0874633789063	1090.295166015625	-586.7475585937501	-310.0772705078126	1129.292846679688	-691.2847900390626	-271.6827392578126	1041.286865234375	-977.7159423828127	-267.0974731445313	1038.77587890625	-752.2106323242189	-450.3955383300782	1087.869750976563	-863.232604980469	-461.2612304687501	1060.072021484375	-890.1947021484377	-460.7522277832032	1060.5732421875	-835.662536621094	-430.7008666992189	804.5737304687502	-1060.385620117188	-401.7305908203126	731.2513427734376	-1091.50927734375	-355.5438537597657	733.6636962890626	-1101.787353515625	-424.443328857422	676.8502197265626	-1083.330932617188	-409.9378662109376	545.9846191406251	-1105.888916015625	-385.1848754882814	498.5487670898439	-984.259216308594	-372.6166687011719	321.3396911621094	-1121.58544921875	-448.5471801757814	288.8433532714844	-1153.826782226563	-405.3308105468751	280.5297241210938	-1151.104858398438	-389.5516967773439	196.6864929199219	-1135.129150390625	-452.6277770996095	102.4033432006836	-1156.146606445313	-405.1064758300782	105.0676651000977	-1079.304321289063	-497.6746520996095	43.2920265197754	-1109.802978515625	-276.4457702636719	58.90585327148439	-1129.406494140625	-285.0114746093751	55.68511199951173	-1175.502685546875	-338.7879943847657	31.02592468261719	-1216.242553710938	-390.5648193359376	797.374694824219	-658.5944213867189	-367.4573669433594	735.1718139648439	-648.1740112304689	-334.7418823242188	729.7141113281251	-650.6966552734376	-410.9138488769532	663.9103393554689	-653.8129272460939	-430.4506835937501	528.7086181640626	-641.2126464843751	-399.2850952148439	496.8729858398439	-768.5019531250002	-385.6530151367189	341.9212036132813	-622.5884399414064	-462.3572082519532	268.3265686035157	-606.9620361328126	-415.8852844238282	263.3132324218751	-602.7962036132814	-392.1682434082032	213.4815063476563	-623.1863403320314	-448.3627319335939	101.025390625	-602.0140380859376	-406.861297607422	103.7775039672852	-680.8787841796876	-490.518280029297	47.45744705200196	-666.6000976562501	-275.0520629882813	59.22755432128908	-605.4736938476564	-289.7370605468751	59.48617935180665	-568.2113647460939	-344.9377746582032	35.21395874023438	-529.3991088867189	nan	nan	nan	nan	nan	nan	
1042	5.205	-263.5270080566407	1767.753051757813	-928.3947753906252	-383.4893798828126	1698.688598632813	-954.847595214844	-409.5342102050782	1647.823120117188	-819.679626464844	-418.9424743652345	1541.223266601563	-883.7942504882815	-434.0722045898439	1215.515502929688	-876.2799072265627	-287.2600097656251	1474.898681640625	-881.6409301757815	-321.4278869628907	1525.173828125	-1055.929809570313	-380.6163635253907	1395.7451171875	-1214.343139648438	-363.9286499023438	1348.73876953125	-1208.589233398438	-401.0405273437501	1343.77197265625	-1256.3671875	-429.4410400390626	1295.441162109375	-1296.395141601563	-495.4977416992189	1293.584716796875	-1257.506225585938	-422.1103820800782	1073.137817382813	-1102.449340820313	-374.0188293457032	1043.868896484375	-1151.462646484375	-372.1219177246094	1082.1845703125	-1058.010620117188	-313.0853271484376	1506.099243164063	-707.2664184570314	-390.0030822753907	1419.984130859375	-541.9504394531251	-365.1072998046876	1377.411499023438	-532.2805175781251	-405.383758544922	1378.621826171875	-487.603240966797	-410.0335083007814	1321.447387695313	-441.2487792968751	-483.1719360351564	1298.308471679688	-481.3365478515626	-358.2195434570313	1117.360229492188	-636.3843994140626	-309.9660339355469	1088.6181640625	-586.3575439453126	-309.7713012695313	1127.759521484375	-690.8545532226564	-271.1376342773438	1041.070556640625	-977.9356079101565	-266.6001586914063	1038.490844726563	-751.9128417968751	-449.8912658691407	1087.189208984375	-863.004089355469	-459.4042053222657	1059.446166992188	-889.455993652344	-460.5068969726564	1060.126342773438	-835.5075683593752	-430.8610839843751	805.0054931640627	-1059.993286132813	-402.4252014160157	731.6914672851564	-1091.5029296875	-356.5237426757813	733.8999633789064	-1102.208618164063	-425.3939819335939	677.4334106445314	-1083.238525390625	-411.359100341797	546.2446289062501	-1105.956787109375	-386.8590087890626	498.6499023437501	-984.8288574218752	-373.1827392578126	320.7977905273438	-1121.870483398438	-449.2530212402345	289.1063842773438	-1153.888427734375	-405.932098388672	280.7511596679688	-1151.1328125	-389.9718017578126	197.5289001464844	-1135.289672851563	-452.6839294433595	102.3980102539063	-1156.121948242188	-405.2922973632814	105.0999374389649	-1079.46240234375	-497.6597900390626	43.24398803710938	-1109.853149414063	-276.4154052734376	58.94239044189455	-1129.405883789063	-285.1079711914063	55.19326400756837	-1175.701904296875	-338.8361816406251	31.03530883789063	-1216.3095703125	-391.1880187988282	797.295104980469	-658.2028808593751	-368.2936401367188	735.1481323242189	-646.7964477539064	-336.2527465820313	729.9174804687501	-649.6562500000001	-411.562957763672	663.8110961914064	-653.7387695312501	-431.4660949707032	528.6859741210939	-641.0774536132814	-400.2396240234376	497.158905029297	-767.9068603515626	-386.4146118164064	342.0905456542969	-622.2974853515626	-462.8294067382814	268.3822631835938	-606.5289306640626	-416.5842285156251	263.3734436035157	-602.6159667968751	-392.5452270507814	213.1272277832032	-623.3458251953126	-448.6010742187501	100.8138427734375	-601.7301025390626	-407.0789184570314	103.4758911132813	-680.7366943359376	-490.5969543457032	47.44709777832032	-666.4780273437501	-275.1259765625001	59.32460021972658	-605.2921752929689	-289.7098999023438	59.44414520263673	-568.0641479492189	-344.8973999023438	35.13176345825196	-529.2917480468751	nan	nan	nan	nan	nan	nan	
1043	5.21	-264.2475585937501	1767.217529296875	-928.5104980468752	-384.3682861328126	1698.195068359375	-954.8614501953127	-410.2601013183595	1647.5224609375	-819.6716918945315	-419.7844543457032	1540.684204101563	-883.8167114257815	-433.7403564453126	1214.86083984375	-875.9606933593752	-287.7299804687501	1474.772827148438	-881.7972412109377	-322.7960815429688	1524.562377929688	-1056.26220703125	-381.6661987304688	1394.499755859375	-1214.260131835938	-365.1596069335938	1347.624633789063	-1208.100341796875	-401.8999633789064	1342.35546875	-1256.12939453125	-430.4828491210939	1293.93017578125	-1296.080810546875	-496.413543701172	1291.919799804688	-1257.209350585938	-422.4738159179689	1071.863891601563	-1102.04638671875	-374.2554626464844	1042.685913085938	-1151.193115234375	-372.3307495117188	1081.337158203125	-1058.099487304688	-314.0387268066407	1505.472534179688	-707.0657348632814	-390.6539306640626	1418.794555664063	-542.4910888671876	-365.9997558593751	1375.687744140625	-532.9898071289064	-406.1159667968751	1377.082397460938	-487.9186401367189	-410.6321716308595	1320.0732421875	-441.8499755859376	-483.631072998047	1296.715576171875	-481.6912231445314	-358.1011047363282	1115.706420898438	-636.2519531250001	-309.9459228515626	1087.155517578125	-586.4500122070314	-309.8604431152344	1126.264404296875	-690.6566772460939	-270.5682373046876	1040.943481445313	-978.084411621094	-266.5317382812501	1038.62353515625	-751.9930419921876	-449.2306213378907	1086.80810546875	-862.9207153320315	-458.9981079101564	1058.967529296875	-889.4558105468752	-459.9777832031251	1059.868286132813	-835.360290527344	-431.0684509277345	805.7105102539065	-1059.700073242188	-403.0774841308595	731.9730224609376	-1091.351806640625	-357.1275634765626	733.9909057617189	-1102.349609375	-426.2082519531251	678.0115356445314	-1083.054931640625	-412.8071289062501	546.5214233398439	-1105.912109375	-387.3670654296876	498.9637756347657	-984.284118652344	-373.9960021972657	322.2419128417969	-1121.551513671875	-449.9470825195314	289.3128662109376	-1153.843505859375	-406.415496826172	280.9420776367188	-1151.067016601563	-390.1895751953126	197.1787261962891	-1135.18212890625	-452.8497314453126	102.3971862792969	-1156.162353515625	-405.3740234375001	105.3338623046875	-1079.469360351563	-497.6912841796876	43.2745590209961	-1109.828735351563	-276.4401245117188	58.93274307250978	-1129.424072265625	-285.0195922851563	55.62250900268556	-1175.59521484375	-338.7128601074219	30.93948554992676	-1216.321533203125	-392.3957519531251	797.8059692382815	-657.5855712890626	-370.2214355468751	735.0179443359376	-646.6738281250001	-337.1596069335938	730.0531616210939	-648.7743530273439	-412.5848388671876	664.0618896484376	-653.3570556640626	-432.7825927734376	528.8428955078126	-640.5631103515626	-401.150115966797	497.3021545410157	-767.4478149414064	-387.3828125000001	342.3063659667969	-621.6511840820314	-463.2587280273439	268.2617492675782	-606.2045898437501	-417.0283203125001	263.5012817382813	-602.2603149414064	-393.0064086914064	213.3896484375001	-623.0755615234376	-448.8821411132814	100.7984924316407	-601.4802856445314	-407.157928466797	103.6889724731446	-680.4995727539064	-490.6804809570314	47.44903945922852	-666.3885498046876	-275.0818176269532	59.05554580688478	-605.0997314453126	-289.7766113281251	59.42449188232423	-567.9911499023439	-344.3692321777344	34.56958770751954	-529.0898437500001	nan	nan	nan	nan	nan	nan	
1044	5.215	-265.0142517089844	1766.770751953125	-928.749450683594	-385.2405700683595	1697.73779296875	-954.8841552734377	-411.1889038085939	1646.8017578125	-819.710388183594	-420.5276489257814	1540.128662109375	-883.834899902344	-433.644744873047	1214.167358398438	-875.5767211914065	-288.3288574218751	1474.32568359375	-881.953063964844	-323.7854309082032	1523.732666015625	-1056.494995117188	-382.7899780273438	1393.2998046875	-1214.057373046875	-366.1853942871094	1346.1796875	-1207.786010742188	-403.0763244628907	1341.037109375	-1255.93701171875	-431.2864379882814	1292.511840820313	-1295.711669921875	-497.4293518066407	1290.421508789063	-1256.84423828125	-422.9093627929689	1070.728759765625	-1101.6142578125	-374.6601257324219	1041.4404296875	-1150.8935546875	-372.4931030273438	1080.422607421875	-1058.065185546875	-314.8085327148438	1504.673706054688	-707.2500610351564	-391.9185791015626	1417.6337890625	-542.5302124023439	-366.7566528320313	1375.021606445313	-533.0507812500001	-406.8165588378907	1375.977294921875	-488.2142333984376	-410.9271240234376	1318.733642578125	-442.283172607422	-484.0220031738282	1294.99560546875	-482.1360473632814	-357.9804992675782	1114.208129882813	-636.2317504882814	-309.6222229003907	1085.643920898438	-586.1948242187501	-309.5726013183594	1125.21728515625	-690.3256225585939	-270.0493469238282	1040.897216796875	-978.292907714844	-265.9580688476563	1038.153930664063	-751.9656372070314	-448.5975646972657	1086.779541015625	-862.8201904296877	-458.325408935547	1058.883056640625	-889.3076782226565	-459.4508666992189	1059.980102539063	-835.247985839844	-431.2273254394532	806.2866821289065	-1059.614379882813	-403.514373779297	732.2476196289064	-1091.2666015625	-357.6542358398438	734.0780029296876	-1102.438232421875	-426.8819885253907	678.3598632812501	-1082.832397460938	-413.9947814941407	546.7814941406251	-1105.751586914063	-388.9181213378907	498.9587707519532	-984.0408935546877	-374.6361389160157	322.4331054687501	-1121.690551757813	-450.4048767089845	289.3530883789063	-1153.859619140625	-406.6092529296876	281.1401672363282	-1151.13232421875	-390.5597534179689	197.4503326416016	-1135.256591796875	-452.9399719238282	102.4576492309571	-1156.122314453125	-405.4204406738282	105.36767578125	-1079.519409179688	-497.7678527832032	43.34356689453126	-1109.806884765625	-276.4227600097657	58.97618865966798	-1129.511962890625	-285.0442504882813	55.60952758789064	-1175.618408203125	-338.7910461425782	30.9548454284668	-1216.351440429688	-393.0716857910157	798.019714355469	-657.1841430664064	-370.7960815429688	735.0849609375001	-646.5892333984376	-337.5885620117188	730.2614746093751	-648.1162719726564	-413.4870910644532	663.9453735351564	-652.7778320312501	-433.785125732422	529.0658569335939	-639.9469604492189	-401.841278076172	497.4278869628907	-766.9672241210939	-387.8737792968751	342.6278686523438	-621.2538452148439	-463.8572998046876	268.2999877929688	-605.6276855468751	-417.3121337890626	263.6374816894532	-601.9072875976564	-393.6285400390626	213.9587707519532	-622.6032104492189	-448.9951477050782	100.7496795654297	-601.2227783203126	-407.2819213867189	103.7552566528321	-680.2488403320314	-490.6541442871095	47.44424438476563	-666.2420043945314	-274.7561340332032	58.60290908813478	-604.9030151367189	-290.1546020507813	59.46241760253908	-567.7343139648439	-344.4301147460938	34.34233856201173	-528.9565429687501	nan	nan	nan	nan	nan	nan	
